<?xml version="1.0" standalone="no"?>
<!DOCTYPE svg PUBLIC "-//W3C//DTD SVG 20010904//EN"
 "http://www.w3.org/TR/2001/REC-SVG-20010904/DTD/svg10.dtd">
<svg version="1.0" xmlns="http://www.w3.org/2000/svg"
 width="1280.000000pt" height="1223.000000pt" viewBox="0 0 1280.000000 1223.000000"
 preserveAspectRatio="xMidYMid meet">
<metadata>
Created by potrace 1.15, written by Peter Selinger 2001-2017
</metadata>
<g transform="translate(0.000000,1223.000000) scale(0.100000,-0.100000)"
fill="#673ab7" stroke="none">
<path d="M9075 12224 c-636 -51 -1189 -239 -1695 -576 -365 -242 -694 -560
-925 -893 -27 -38 -52 -74 -55 -78 -4 -5 -32 27 -62 70 -154 220 -412 496
-626 671 -488 397 -1028 644 -1634 746 -204 35 -344 46 -578 46 -234 0 -374
-11 -577 -45 -705 -119 -1339 -441 -1852 -940 -308 -300 -532 -605 -711 -970
-185 -376 -286 -724 -342 -1175 -17 -136 -16 -642 1 -815 126 -1276 647 -2274
1781 -3415 315 -317 561 -541 1330 -1214 822 -720 1165 -1033 1554 -1421 551
-549 1025 -1099 1391 -1610 59 -82 121 -165 138 -183 67 -71 172 -103 270 -82
86 17 139 59 209 164 459 686 958 1278 1684 1996 369 365 604 584 1260 1171
564 505 817 734 1054 960 803 764 1326 1432 1656 2114 182 376 298 725 373
1120 99 517 106 1065 21 1510 -112 581 -345 1085 -724 1560 -102 129 -382 409
-511 511 -535 427 -1112 673 -1787 759 -118 16 -534 27 -643 19z"/>
</g>
</svg>
